<?xml version="1.0" standalone="no"?>
<!DOCTYPE svg PUBLIC "-//W3C//DTD SVG 20010904//EN" "http://www.w3.org/TR/2001/REC-SVG-20010904/DTD/svg10.dtd">
<svg
  version="1.0"
  xmlns="http://www.w3.org/2000/svg"
  width="500.000000pt"
  height="500.000000pt"
  viewBox="0 0 500.000000 500.000000"
  preserveAspectRatio="xMidYMid meet" fill="currentColor"
>
  <g
    transform="translate(0.000000,500.000000) scale(0.100000,-0.100000)"
  >
    <path
      d="M300 4486 c0 -8 24 -63 54 -123 30 -59 87 -175 126 -258 72 -149 96
-198 130 -265 10 -19 54 -109 98 -200 169 -350 293 -606 319 -655 49 -93 143
-293 143 -302 0 -7 5 -13 10 -13 6 0 10 -5 10 -11 0 -6 16 -45 36 -86 l36 -74
-36 -74 c-20 -40 -36 -79 -36 -84 0 -6 -4 -11 -10 -11 -5 0 -10 -5 -10 -12 0
-7 -47 -107 -104 -223 -57 -115 -139 -282 -181 -370 -43 -88 -136 -279 -207
-425 -71 -146 -161 -330 -199 -410 -39 -80 -95 -194 -125 -253 -30 -60 -54
-115 -54 -123 0 -12 39 -14 245 -14 202 0 245 2 245 14 0 14 29 82 96 223 19
39 34 75 34 79 0 4 18 45 41 93 89 188 89 188 158 346 12 28 33 73 46 100 34
73 74 160 107 240 17 39 34 75 38 80 4 6 14 28 22 50 14 36 46 106 113 250 30
64 52 130 60 178 7 46 21 48 30 5 4 -18 23 -67 42 -108 80 -171 119 -252 178
-375 35 -71 100 -206 145 -300 44 -93 85 -178 90 -187 6 -10 14 -26 20 -35 5
-10 20 -43 33 -73 25 -56 141 -301 158 -333 18 -34 28 -54 74 -149 l47 -98
210 0 c168 0 212 3 224 14 8 8 14 18 14 22 0 4 11 30 24 58 79 167 106 226
106 230 0 2 29 65 65 141 36 75 65 139 65 143 0 3 18 45 41 92 68 142 137 291
172 370 13 30 37 82 52 115 61 132 98 212 117 255 12 25 29 63 39 85 10 22 24
64 30 92 11 55 29 81 29 43 0 -29 67 -194 136 -334 8 -16 14 -33 14 -39 0 -5
13 -37 29 -71 16 -33 36 -77 44 -96 8 -19 26 -60 39 -90 14 -30 33 -75 43
-100 11 -25 27 -60 37 -78 10 -18 18 -38 18 -44 0 -6 13 -38 29 -72 16 -34 39
-83 51 -111 31 -71 44 -101 79 -178 17 -38 31 -71 31 -73 0 -3 19 -47 41 -97
39 -85 61 -136 94 -212 7 -16 15 -38 19 -47 5 -17 26 -18 246 -18 132 0 240 2
240 4 0 2 -15 34 -34 72 -34 69 -127 265 -161 339 -17 37 -85 181 -175 370
-21 44 -51 109 -68 145 -16 36 -60 127 -96 203 -36 75 -66 142 -66 147 0 6 -4
10 -10 10 -5 0 -10 7 -10 15 0 8 -30 76 -66 152 -36 76 -76 161 -89 188 -44
95 -127 270 -148 313 l-21 42 21 43 c21 42 104 217 148 312 13 28 53 112 89
188 36 76 66 144 66 152 0 8 5 15 10 15 6 0 10 4 10 10 0 5 30 72 66 147 36
76 80 167 96 203 17 36 47 101 68 145 90 189 158 333 175 370 34 74 127 270
161 339 19 38 34 70 34 72 0 2 -108 4 -240 4 -220 0 -241 -1 -246 -17 -4 -10
-15 -38 -26 -63 -11 -25 -27 -61 -35 -80 -8 -19 -26 -58 -38 -86 -13 -28 -33
-73 -43 -100 -18 -45 -34 -80 -94 -214 -11 -25 -27 -61 -35 -80 -8 -19 -25
-57 -38 -85 -13 -27 -26 -60 -30 -72 -3 -12 -21 -53 -40 -92 -19 -40 -35 -74
-35 -77 0 -3 -12 -31 -26 -62 -14 -31 -33 -73 -41 -92 -8 -19 -28 -63 -44 -96
-16 -34 -29 -66 -29 -71 0 -6 -6 -23 -14 -39 -69 -140 -136 -305 -136 -334 0
-38 -18 -12 -29 43 -6 28 -20 70 -30 92 -10 22 -27 60 -39 85 -19 43 -56 123
-117 255 -15 33 -39 85 -52 115 -35 79 -104 228 -172 370 -23 47 -41 89 -41
92 0 4 -29 68 -65 143 -36 76 -65 139 -65 141 0 3 -18 44 -41 92 -72 153 -87
186 -94 210 -6 22 -7 22 -225 22 l-220 0 -46 -97 c-25 -54 -50 -106 -55 -115
-5 -10 -13 -26 -18 -35 -9 -18 -59 -122 -141 -298 -40 -87 -49 -105 -70 -142
-5 -10 -46 -94 -90 -188 -45 -93 -110 -228 -145 -300 -59 -123 -98 -204 -178
-375 -19 -41 -38 -90 -42 -107 -9 -44 -23 -42 -30 5 -8 47 -30 113 -60 177
-67 144 -99 214 -113 250 -8 22 -18 45 -22 50 -4 6 -21 42 -38 80 -33 79 -72
166 -107 240 -22 47 -42 91 -94 210 -22 50 -34 75 -110 236 -23 48 -41 89 -41
93 0 4 -15 40 -34 79 -67 141 -96 209 -96 223 0 12 -43 14 -245 14 -206 0
-245 -2 -245 -14z m2223 -423 c3 -10 8 -31 12 -48 3 -16 27 -72 52 -125 25
-52 58 -122 73 -155 15 -33 52 -112 83 -175 30 -63 66 -140 80 -170 13 -30 50
-109 82 -175 31 -66 74 -156 95 -200 21 -44 63 -132 94 -197 31 -64 56 -119
56 -122 0 -3 -288 -6 -640 -6 -352 0 -640 4 -640 8 0 9 2 14 115 247 40 83 89
186 110 230 21 44 66 139 100 210 35 72 87 180 115 240 29 61 79 165 111 232
33 68 65 145 71 173 12 51 23 63 31 33z m627 -1748 c0 -8 -25 -65 -55 -127
-30 -61 -55 -117 -55 -125 0 -7 -4 -13 -10 -13 -5 0 -10 -5 -10 -12 0 -7 -18
-48 -39 -93 -46 -94 -123 -256 -158 -335 -14 -30 -51 -109 -83 -175 -32 -66
-69 -145 -83 -175 -13 -30 -45 -98 -70 -150 -44 -93 -49 -107 -61 -163 -9 -37
-21 -27 -35 29 -7 26 -42 108 -78 183 -36 75 -78 164 -94 199 -16 34 -64 136
-108 225 -43 89 -95 198 -116 242 -21 44 -66 140 -101 213 -77 158 -134 282
-134 288 0 2 290 4 645 4 567 0 645 -2 645 -15z" />
  </g>
</svg>
